HIERARCHY
ROOT Hips
{
    OFFSET   0.000000   0.000000   0.000000
    CHANNELS 6 Xposition Yposition Zposition Zrotation Xrotation Yrotation
    JOINT Chest
    {
        OFFSET   0.000000   8.007230   0.000000
        CHANNELS 3 Zrotation Xrotation Yrotation
        JOINT Chest2
        {
            OFFSET   0.000000  22.077100   0.000000
            CHANNELS 3 Zrotation Xrotation Yrotation
            JOINT Neck
            {
                OFFSET   0.000000  23.254800  -0.000021
                CHANNELS 3 Zrotation Xrotation Yrotation
                JOINT Head
                {
                    OFFSET   0.000000  14.370000   1.956610
                    CHANNELS 3 Zrotation Xrotation Yrotation
                    End Site
                    {
                        OFFSET   0.000000  19.566000   0.000000
                    }
                }
            }
            JOINT LeftCollar
            {
                OFFSET   3.911900  19.017000  -0.467063
                CHANNELS 3 Zrotation Xrotation Yrotation
                JOINT LeftShoulder
                {
                    OFFSET  10.383700   0.000000   0.000000
                    CHANNELS 3 Zrotation Xrotation Yrotation
                    JOINT LeftElbow
                    {
                        OFFSET  26.662100   0.001529   0.000325
                        CHANNELS 3 Zrotation Xrotation Yrotation
                        JOINT LeftWrist
                        {
                            OFFSET  28.869000  -0.000011  -0.000096
                            CHANNELS 3 Zrotation Xrotation Yrotation
                            JOINT LeftFinger0
                            {
                                OFFSET   2.044650  -2.323460   3.252850
                                CHANNELS 3 Zrotation Xrotation Yrotation
                                JOINT LeftFinger01
                                {
                                    OFFSET   3.088130   0.000000   0.000000
                                    CHANNELS 3 Zrotation Xrotation Yrotation
                                    JOINT LeftFinger02
                                    {
                                        OFFSET   2.639460   0.000000   0.000000
                                        CHANNELS 3 Zrotation Xrotation Yrotation
                                        End Site
                                        {
                                            OFFSET   2.582190   0.000000   0.000000
                                        }
                                    }
                                }
                            }
                            JOINT LeftFinger1
                            {
                                OFFSET   8.364480   0.000000   3.252850
                                CHANNELS 3 Zrotation Xrotation Yrotation
                                JOINT LeftFinger11
                                {
                                    OFFSET   4.646930   0.000000   0.000000
                                    CHANNELS 3 Zrotation Xrotation Yrotation
                                    JOINT LeftFinger12
                                    {
                                        OFFSET   2.323460   0.000000   0.000000
                                        CHANNELS 3 Zrotation Xrotation Yrotation
                                        End Site
                                        {
                                            OFFSET   2.273050   0.000000   0.000000
                                        }
                                    }
                                }
                            }
                            JOINT LeftFinger2
                            {
                                OFFSET   8.364480   0.000016   1.078090
                                CHANNELS 3 Zrotation Xrotation Yrotation
                                JOINT LeftFinger21
                                {
                                    OFFSET   5.111620   0.000000   0.000000
                                    CHANNELS 3 Zrotation Xrotation Yrotation
                                    JOINT LeftFinger22
                                    {
                                        OFFSET   2.788160   0.000017   0.000000
                                        CHANNELS 3 Zrotation Xrotation Yrotation
                                        End Site
                                        {
                                            OFFSET   2.727660   0.000000   0.000000
                                        }
                                    }
                                }
                            }
                            JOINT LeftFinger3
                            {
                                OFFSET   7.899780   0.000015  -1.078090
                                CHANNELS 3 Zrotation Xrotation Yrotation
                                JOINT LeftFinger31
                                {
                                    OFFSET   4.646920   0.000000   0.000000
                                    CHANNELS 3 Zrotation Xrotation Yrotation
                                    JOINT LeftFinger32
                                    {
                                        OFFSET   2.323470   0.000000   0.000000
                                        CHANNELS 3 Zrotation Xrotation Yrotation
                                        End Site
                                        {
                                            OFFSET   2.273050   0.000000   0.000000
                                        }
                                    }
                                }
                            }
                            JOINT LeftFinger4
                            {
                                OFFSET   7.435090   0.000000  -3.252850
                                CHANNELS 3 Zrotation Xrotation Yrotation
                                JOINT LeftFinger41
                                {
                                    OFFSET   3.717550   0.000000   0.000000
                                    CHANNELS 3 Zrotation Xrotation Yrotation
                                    JOINT LeftFinger42
                                    {
                                        OFFSET   1.858760   0.000000   0.000000
                                        CHANNELS 3 Zrotation Xrotation Yrotation
                                        End Site
                                        {
                                            OFFSET   1.818440   0.000000   0.000000
                                        }
                                    }
                                }
                            }
                        }
                    }
                }
            }
            JOINT RightCollar
            {
                OFFSET  -3.911900  19.017000  -0.467062
                CHANNELS 3 Zrotation Xrotation Yrotation
                JOINT RightShoulder
                {
                    OFFSET -10.383700   0.000015   0.000000
                    CHANNELS 3 Zrotation Xrotation Yrotation
                    JOINT RightElbow
                    {
                        OFFSET -26.662100   0.001341   0.000385
                        CHANNELS 3 Zrotation Xrotation Yrotation
                        JOINT RightWrist
                        {
                            OFFSET -28.869000   0.000025  -0.000080
                            CHANNELS 3 Zrotation Xrotation Yrotation
                            JOINT RightFinger0
                            {
                                OFFSET  -2.044650  -2.323490   3.252850
                                CHANNELS 3 Zrotation Xrotation Yrotation
                                JOINT RightFinger01
                                {
                                    OFFSET  -3.088130   0.000000   0.000000
                                    CHANNELS 3 Zrotation Xrotation Yrotation
                                    JOINT RightFinger02
                                    {
                                        OFFSET  -2.639460   0.000000   0.000000
                                        CHANNELS 3 Zrotation Xrotation Yrotation
                                        End Site
                                        {
                                            OFFSET  -2.582190   0.000000   0.000000
                                        }
                                    }
                                }
                            }
                            JOINT RightFinger1
                            {
                                OFFSET  -8.364480   0.000000   3.252850
                                CHANNELS 3 Zrotation Xrotation Yrotation
                                JOINT RightFinger11
                                {
                                    OFFSET  -4.646930   0.000000   0.000000
                                    CHANNELS 3 Zrotation Xrotation Yrotation
                                    JOINT RightFinger12
                                    {
                                        OFFSET  -2.323470   0.000000   0.000000
                                        CHANNELS 3 Zrotation Xrotation Yrotation
                                        End Site
                                        {
                                            OFFSET  -2.273050   0.000000   0.000000
                                        }
                                    }
                                }
                            }
                            JOINT RightFinger2
                            {
                                OFFSET  -8.364480   0.000000   1.078090
                                CHANNELS 3 Zrotation Xrotation Yrotation
                                JOINT RightFinger21
                                {
                                    OFFSET  -5.111610   0.000000   0.000000
                                    CHANNELS 3 Zrotation Xrotation Yrotation
                                    JOINT RightFinger22
                                    {
                                        OFFSET  -2.788160   0.000000   0.000000
                                        CHANNELS 3 Zrotation Xrotation Yrotation
                                        End Site
                                        {
                                            OFFSET  -2.727660   0.000000   0.000000
                                        }
                                    }
                                }
                            }
                            JOINT RightFinger3
                            {
                                OFFSET  -7.899780   0.000000  -1.078090
                                CHANNELS 3 Zrotation Xrotation Yrotation
                                JOINT RightFinger31
                                {
                                    OFFSET  -4.646920   0.000000   0.000000
                                    CHANNELS 3 Zrotation Xrotation Yrotation
                                    JOINT RightFinger32
                                    {
                                        OFFSET  -2.323470   0.000000   0.000000
                                        CHANNELS 3 Zrotation Xrotation Yrotation
                                        End Site
                                        {
                                            OFFSET  -2.273050   0.000000   0.000000
                                        }
                                    }
                                }
                            }
                            JOINT RightFinger4
                            {
                                OFFSET  -7.435090   0.000000  -3.252850
                                CHANNELS 3 Zrotation Xrotation Yrotation
                                JOINT RightFinger41
                                {
                                    OFFSET  -3.717550   0.000000   0.000000
                                    CHANNELS 3 Zrotation Xrotation Yrotation
                                    JOINT RightFinger42
                                    {
                                        OFFSET  -1.858770   0.000000   0.000000
                                        CHANNELS 3 Zrotation Xrotation Yrotation
                                        End Site
                                        {
                                            OFFSET  -1.818440   0.000000   0.000000
                                        }
                                    }
                                }
                            }
                        }
                    }
                }
            }
        }
    }
    JOINT LeftHip
    {
        OFFSET   9.783010   0.000000   0.000000
        CHANNELS 3 Zrotation Xrotation Yrotation
        JOINT LeftKnee
        {
            OFFSET   0.000070 -41.789100   0.000028
            CHANNELS 3 Zrotation Xrotation Yrotation
            JOINT LeftAnkle
            {
                OFFSET   0.000087 -41.133200  -0.000100
                CHANNELS 3 Zrotation Xrotation Yrotation
                JOINT LeftToe
                {
                    OFFSET   0.000000  -6.358960  14.674500
                    CHANNELS 3 Zrotation Xrotation Yrotation
                    End Site
                    {
                        OFFSET   0.000000   0.000000   3.913200
                    }
                }
            }
        }
    }
    JOINT RightHip
    {
        OFFSET  -9.783020   0.000000   0.000000
        CHANNELS 3 Zrotation Xrotation Yrotation
        JOINT RightKnee
        {
            OFFSET   0.000044 -41.789100  -0.000870
            CHANNELS 3 Zrotation Xrotation Yrotation
            JOINT RightAnkle
            {
                OFFSET  -0.000090 -41.133200  -0.000245
                CHANNELS 3 Zrotation Xrotation Yrotation
                JOINT RightToe
                {
                    OFFSET   0.000000  -6.358960  14.674500
                    CHANNELS 3 Zrotation Xrotation Yrotation
                    End Site
                    {
                        OFFSET   0.000000   0.000000   3.913200
                    }
                }
            }
        }
    }
}
MOTION
Frames: 6
Frame Time:   0.016667
  0.359209  89.525200   0.727688  -3.458550  -9.317840  -2.910430   0.357267   4.914220  -0.323797   0.746596   9.826250  -0.682164   0.720154  -0.304455   0.004393   1.183270  -0.617083  14.737500  -2.400160   1.083600   0.707976 -73.906000  21.344200  -2.605460  -2.036620  -3.318400 -17.698700  14.187900 -10.825900   6.554710  41.965200  36.368200 -64.080100 -31.200700   0.002725   0.003258 -10.600300   0.001001   0.001921 -24.251200   3.268760  -7.213720 -20.010400   0.004015  -0.008182 -14.007400   0.003465  -0.009860 -27.022600  -0.593727   1.163970 -27.112800  -0.001501  -0.011368 -18.056600  -0.001074   0.004183 -26.091000  -0.574734   1.173470 -26.096900   0.000965  -0.008740 -17.380500   0.010423  -0.004561 -26.348700  -0.580007   1.170880 -39.531900  -0.003422  -0.010917 -26.328300  -0.002383  -0.000848   1.931250  -2.991140   0.636424  21.671200 -14.133800  50.022500 -28.127300 -40.839900  90.690600  38.352100   6.748000  -0.544589 -32.971700  36.056800  72.823300  44.212200  -0.005393  -0.003002  18.929000  -0.007747   0.004264  89.019500   4.994870   0.084434  75.673300  -0.033702  -0.015511  56.755100  -0.024140   0.009682  84.097500   0.002157  -0.027119  84.097400  -0.026260  -0.008883  63.073100  -0.015140   0.014338  85.611200  -4.980350  -0.409744  85.591600  -0.028006  -0.002161  64.193600  -0.013629   0.016398  88.993800  -9.998970  -0.174610 110.000000  -0.001596   0.003511  80.000000   0.002228   0.003915   2.089570  12.023700   3.457530   1.088540   0.321260  11.095100  -1.790930  -3.809840   2.408150  -0.000000   0.000000   0.000000   4.390460   9.743170  -5.231090  -1.809550   2.777290  -6.994890   0.099416  -4.247510   2.254030  -0.000000   0.000000   0.000000
  0.359529  89.520400   0.756012  -3.477250  -9.304590  -2.989840   0.360444   4.881990  -0.320955   0.752576   9.761780  -0.676557   0.749276  -0.212487   0.004307   1.231040  -0.430703  14.746500  -2.412690   1.104900   0.730902 -73.944500  21.344200  -2.589130  -2.037160  -3.333400 -17.621200  14.185000 -10.812500   6.533490  41.954900  36.338100 -64.058600 -31.183500   0.002729   0.003306 -10.591700   0.001021   0.001914 -24.244800   3.281260  -7.243200 -20.006300   0.004044  -0.008291 -14.004400   0.003523  -0.009974 -27.023200  -0.573751   1.124870 -27.106700  -0.001496  -0.011456 -18.052000  -0.001086   0.004241 -26.083900  -0.555277   1.134110 -26.089400   0.001011  -0.008850 -17.375500   0.010462  -0.004561 -26.337400  -0.560291   1.131640 -39.514300  -0.003414  -0.011065 -26.316500  -0.002389  -0.000877   1.918910  -2.969290   0.658057  22.235300 -14.551400  50.743000 -27.790700 -39.872200  89.716500  36.524400   8.239540  -2.679740 -33.487600  36.511100  73.561700  43.843100  -0.004533  -0.002940  18.486800  -0.004569   0.004362  88.996500   4.994870   0.084493  76.981800  -0.017706  -0.006549  57.736400  -0.011144   0.008698  85.076600   0.002436  -0.014532  85.076600  -0.014289  -0.003554  63.807500  -0.007069   0.008498  86.635200  -4.989600  -0.308938  86.609600  -0.016024  -0.002301  64.957200  -0.006577   0.010188  88.993700  -9.998950  -0.174726 110.000000  -0.001556   0.003529  80.000000   0.002225   0.003903   2.084050  12.054300   3.454150   1.094720   0.310274  11.131200  -1.783430  -3.835990   2.457850   0.000000   0.000000  -0.000000   4.393880   9.751920  -5.231060  -1.810050   2.767960  -6.972130   0.103249  -4.249540   2.308700   0.000000   0.000000  -0.000000
  0.358302  89.520900   0.785162  -3.497280  -9.290140  -3.067610   0.362638   4.850210  -0.309256   0.755810   9.698270  -0.653066   0.780468  -0.130130   0.004212   1.282180  -0.263819  14.734000  -2.424880   1.124740   0.749607 -73.977100  21.347300  -2.580410  -2.028600  -3.336490 -17.557700  14.198000 -10.813500   6.513090  41.944500  36.303500 -64.026300 -31.163300   0.002738   0.003333 -10.581700   0.001034   0.001924 -24.237700   3.294830  -7.275330 -20.002000   0.004076  -0.008395 -14.001900   0.003581  -0.010090 -27.023800  -0.553519   1.085270 -27.098500  -0.001493  -0.011537 -18.047100  -0.001101   0.004299 -26.080800  -0.535654   1.094230 -26.085900   0.001057  -0.008958 -17.373200   0.010497  -0.004560 -26.325300  -0.540344   1.091900 -39.495700  -0.003410  -0.011206 -26.304200  -0.002392  -0.000907   1.909980  -2.954970   0.678973  22.741600 -14.889300  51.400200 -27.457400 -39.022000  88.779800  35.075400   9.336050  -4.347610 -34.037900  36.879000  74.325400  43.454300  -0.004307  -0.002868  18.013300  -0.004576   0.004450  88.996500   4.994840   0.084534  78.270900  -0.006272  -0.006281  58.703200  -0.005728   0.008496  86.036600   0.002491  -0.005030  86.036600  -0.005341  -0.003216  64.527500  -0.003362   0.003243  87.632300  -4.994620  -0.214256  87.676100  -0.005929  -0.002361  65.757000  -0.003180   0.006545  88.993600  -9.998920  -0.174835 110.000000  -0.001522   0.003535  80.000000   0.002240   0.003886   2.082680  12.073700   3.456890   1.100210   0.318528  11.164200  -1.778970  -3.871310   2.501980   0.000000   0.000000   0.000000   4.401630   9.758110  -5.230970  -1.810420   2.765090  -6.940260   0.106228  -4.253370   2.354550  -0.000000   0.000000   0.000000
  0.354977  89.522000   0.815904  -3.516390  -9.276180  -3.131980   0.363923   4.820380  -0.290795   0.756518   9.638720  -0.615734   0.811868  -0.061570   0.004117   1.333710  -0.124879  14.700200  -2.438190   1.140920   0.766490 -74.001900  21.350600  -2.578120  -2.012060  -3.337310 -17.527800  14.225900 -10.818200   6.492620  41.936700  36.269600 -63.993400 -31.140500   0.002747   0.003356 -10.570300   0.001046   0.001938 -24.232200   3.308460  -7.306720 -19.999700   0.004109  -0.008500 -14.000700   0.003639  -0.010206 -27.024400  -0.534713   1.048450 -27.093400  -0.001487  -0.011614 -18.044200  -0.001111   0.004356 -26.080300  -0.517508   1.057090 -26.085000   0.001102  -0.009066 -17.372600   0.010526  -0.004557 -26.318500  -0.521871   1.054920 -39.484900  -0.003397  -0.011339 -26.297000  -0.002392  -0.000939   1.901830  -2.940740   0.703110  23.141600 -15.141600  51.928600 -27.136000 -38.333300  87.967800  34.424400  10.140400  -5.166670 -34.559300  37.176900  75.036600  43.065600  -0.004233  -0.002786  17.546900  -0.004586   0.004519  88.996500   4.994820   0.084575  79.494200  -0.000325  -0.006206  59.620600  -0.003838   0.008436  86.935200   0.002499   0.000356  86.935200   0.000320  -0.003105  65.201400  -0.001798   0.000000  88.462100  -4.996900  -0.136311  88.702400   0.000000  -0.002370  66.526700  -0.001632   0.004622  88.993500  -9.998900  -0.174954 110.000000  -0.001485   0.003539  80.000000   0.002262   0.003869   2.083010  12.090800   3.461940   1.104670   0.326788  11.189700  -1.775080  -3.905990   2.537290   0.000000   0.000000   0.000000   4.411540   9.763930  -5.230850  -1.810480   2.764850  -6.907020   0.107856  -4.261050   2.381750  -0.000000   0.000000  -0.000000
  0.349528  89.523200   0.849798  -3.532990  -9.264740  -3.173920   0.365220   4.794420  -0.269481   0.757691   9.586960  -0.572781   0.841299  -0.007952   0.004030   1.379520  -0.016171  14.647600  -2.454270   1.150160   0.786007 -74.019900  21.351100  -2.578900  -1.984600  -3.324030 -17.533300  14.265400 -10.850300   6.472970  41.935200  36.240600 -63.971000 -31.113500   0.002750   0.003381 -10.556800   0.001067   0.001949 -24.233400   3.321730  -7.335100 -20.002200   0.004143  -0.008614 -14.002000   0.003695  -0.010320 -27.024800  -0.518812   1.017310 -27.093600   0.005316  -0.011706 -18.044400   0.003878   0.004413 -26.090600  -0.502177   1.025680 -26.094900   0.001125  -0.009178 -17.379200   0.010550  -0.004551 -26.323400  -0.506351   1.023600 -39.491700   0.010750  -0.011492 -26.301500   0.007316  -0.000975   1.888310  -2.919860   0.736798  23.342900 -15.283200  52.243300 -26.844700 -37.905000  87.238700  34.482600  10.569600  -5.236430 -35.010800  37.504300  75.667600  42.713000  -0.004087  -0.002693  17.149500  -0.004592   0.004568  88.996500   4.994790   0.084622  80.622900  -0.000632  -0.006101  60.467200  -0.003655   0.008336  87.702300   0.002492   0.000697  87.702400   0.001482  -0.002886  65.776700  -0.001562  -0.000235  88.923400  -4.997400  -0.094142  89.583800   0.000290  -0.002367  67.187800  -0.001363   0.004338  88.993400  -9.998890  -0.175084 110.000000  -0.001438   0.003550  80.000000   0.002273   0.003864   2.087050  12.119700   3.467720   1.107560   0.317028  11.202300  -1.770720  -3.928990   2.562440   0.000000   0.000000   0.000000   4.421790   9.772070  -5.230790  -1.809890   2.768040  -6.871580   0.108179  -4.275150   2.387780   0.000000   0.000000   0.000000
  0.342748  89.524700   0.885746  -3.544570  -9.253650  -3.190690   0.364893   4.771520  -0.245334   0.754332   9.541340  -0.524020   0.868842   0.016983   0.003940   1.427290   0.034415  14.575400  -2.471950   1.153350   0.797232 -74.027400  21.351100  -2.580890  -1.947660  -3.299560 -17.565600  14.314100 -10.909100   6.454660  41.937300  36.220500 -63.953200 -31.088200   0.002754   0.003406 -10.544100   0.001080   0.001957 -24.239200   3.332620  -7.357040 -20.007500   0.004178  -0.008731 -14.005200   0.003750  -0.010432 -27.025100  -0.507580   0.995220 -27.095100   0.012114  -0.011760 -18.045400   0.008867   0.004470 -26.109000  -0.491747   1.003190 -26.113300   0.001196  -0.009290 -17.391500   0.010567  -0.004543 -26.332400  -0.495632   1.001260 -39.505000   0.024884  -0.011580 -26.310400   0.017025  -0.001012   1.880020  -2.896780   0.767409  23.397200 -15.330100  52.355700 -26.695500 -37.743100  86.858600  34.555800  10.797200  -5.249330 -35.363000  37.738800  76.161600  42.394300  -0.003945  -0.002592  16.810200  -0.004595   0.004589  88.996500   4.994770   0.084678  81.497100  -0.001417  -0.006034  61.122800  -0.003608   0.008249  88.316600   0.002474   0.000801  88.316700   0.001648  -0.002680  66.237500  -0.001484  -0.000307  89.079300  -4.997540  -0.079797  90.292000   0.000370  -0.002348  67.719000  -0.001276   0.004251  88.993200  -9.998880  -0.175222 110.000000  -0.001390   0.003562  80.000000   0.002277   0.003859   2.093320  12.138100   3.473850   1.110280   0.307280  11.205700  -1.767380  -3.950910   2.573200  -0.000000   0.000000   0.000000   4.432050   9.781170  -5.230260  -1.808300   2.772030  -6.851260   0.108302  -4.293890   2.388700   0.000000   0.000000  -0.000000
